<svg width="19" height="20" viewBox="0 0 19 20" fill="none" xmlns="http://www.w3.org/2000/svg">
<path d="M1.66675 1.66669H3.11675C4.01675 1.66669 4.72508 2.44169 4.65008 3.33335L3.95841 11.6334C3.93141 11.9549 3.97149 12.2786 4.07611 12.5838C4.18073 12.8891 4.34762 13.1693 4.5662 13.4066C4.78477 13.644 5.05027 13.8334 5.34588 13.9628C5.64148 14.0922 5.96073 14.1588 6.28341 14.1584H15.1584C16.3584 14.1584 17.4084 13.175 17.5001 11.9834L17.9501 5.73335C18.0501 4.35002 17.0001 3.22502 15.6084 3.22502H4.85008M7.50008 6.66669H17.5001M13.5417 18.3334C13.818 18.3334 14.083 18.2236 14.2783 18.0283C14.4737 17.8329 14.5834 17.568 14.5834 17.2917C14.5834 17.0154 14.4737 16.7505 14.2783 16.5551C14.083 16.3598 13.818 16.25 13.5417 16.25C13.2655 16.25 13.0005 16.3598 12.8052 16.5551C12.6098 16.7505 12.5001 17.0154 12.5001 17.2917C12.5001 17.568 12.6098 17.8329 12.8052 18.0283C13.0005 18.2236 13.2655 18.3334 13.5417 18.3334ZM6.87508 18.3334C7.15135 18.3334 7.4163 18.2236 7.61165 18.0283C7.807 17.8329 7.91675 17.568 7.91675 17.2917C7.91675 17.0154 7.807 16.7505 7.61165 16.5551C7.4163 16.3598 7.15135 16.25 6.87508 16.25C6.59881 16.25 6.33386 16.3598 6.13851 16.5551C5.94316 16.7505 5.83341 17.0154 5.83341 17.2917C5.83341 17.568 5.94316 17.8329 6.13851 18.0283C6.33386 18.2236 6.59881 18.3334 6.87508 18.3334Z" stroke="white" stroke-width="1.5" stroke-miterlimit="10" stroke-linecap="round" stroke-linejoin="round"/>
</svg>
