<svg width="20" height="20" viewBox="0 0 20 20" fill="none" xmlns="http://www.w3.org/2000/svg">
<path d="M18.3334 18.3334L16.6667 16.6667M9.58342 17.5C10.623 17.5 11.6525 17.2953 12.613 16.8974C13.5735 16.4996 14.4462 15.9164 15.1813 15.1813C15.9165 14.4462 16.4996 13.5734 16.8975 12.6129C17.2953 11.6524 17.5001 10.623 17.5001 9.58335C17.5001 8.54372 17.2953 7.51427 16.8975 6.55378C16.4996 5.59328 15.9165 4.72056 15.1813 3.98543C14.4462 3.25029 13.5735 2.66716 12.613 2.26931C11.6525 1.87146 10.623 1.66669 9.58342 1.66669C7.48378 1.66669 5.47015 2.50076 3.98549 3.98543C2.50082 5.47009 1.66675 7.48372 1.66675 9.58335C1.66675 11.683 2.50082 13.6966 3.98549 15.1813C5.47015 16.6659 7.48378 17.5 9.58342 17.5Z" stroke="white" stroke-width="2" stroke-linecap="round" stroke-linejoin="round"/>
</svg>
